name analog
datacolumns 19
datarows 52
range 0.47950000000000004 0.505
endheader
time	ground_force_vx	ground_force_vy	ground_force_vz	ground_force_px	ground_force_py	ground_force_pz	l_ground_force_vx	l_ground_force_vy	l_ground_force_vz	l_ground_force_px	l_ground_force_py	l_ground_force_pz	ground_torque_x	ground_torque_y	ground_torque_z	l_ground_torque_x	l_ground_torque_y	l_ground_torque_z
0.47950000000000004	-0.0	-0.0	-0.0	-0.0	-0.0	-0.0	5.718212127685547	-5.904038429260254	-828.080810546875	-0.0	-0.0	-0.0	-0.0	-0.0	-0.0	229306.796875	-6105.1083984375	736.1445922851562
0.48	-0.0	-0.0	-0.0	-0.0	-0.0	-0.0	4.336711883544922	-7.493707656860352	-822.5614013671875	-0.0	-0.0	-0.0	-0.0	-0.0	-0.0	228080.65625	-5402.06689453125	543.0961303710938
0.4805	-0.0	-0.0	-0.0	-0.0	-0.0	-0.0	3.968339920043945	-8.121644973754883	-819.3270874023438	-0.0	-0.0	-0.0	-0.0	-0.0	-0.0	226643.234375	-4617.9365234375	525.4784545898438
0.481	-0.0	-0.0	-0.0	-0.0	-0.0	-0.0	3.5997314453125	-8.441635131835938	-813.338134765625	-0.0	-0.0	-0.0	-0.0	-0.0	-0.0	224853.71875	-4297.20458984375	462.53076171875
0.4815	-0.0	-0.0	-0.0	-0.0	-0.0	-0.0	3.767970323562622	-8.306999206542969	-806.540283203125	-0.0	-0.0	-0.0	-0.0	-0.0	-0.0	223295.359375	-3756.773681640625	692.2318115234375
0.482	-0.0	-0.0	-0.0	-0.0	-0.0	-0.0	4.547422885894775	-7.712106227874756	-801.267333984375	-0.0	-0.0	-0.0	-0.0	-0.0	-0.0	221872.453125	-3617.08056640625	895.9185180664062
0.4825	-0.0	-0.0	-0.0	-0.0	-0.0	-0.0	4.3895440101623535	-7.014485836029053	-799.3201293945312	-0.0	-0.0	-0.0	-0.0	-0.0	-0.0	221057.546875	-3384.279296875	1009.91748046875
0.483	-0.0	-0.0	-0.0	-0.0	-0.0	-0.0	3.903274536132813	-6.587128162384033	-796.5281372070312	-0.0	-0.0	-0.0	-0.0	-0.0	-0.0	220827.625	-3391.347900390625	853.7451171875
0.4835	-0.0	-0.0	-0.0	-0.0	-0.0	-0.0	4.169406890869141	-6.160019874572754	-796.3577880859375	-0.0	-0.0	-0.0	-0.0	-0.0	-0.0	220584.46875	-3416.05322265625	787.7782592773438
0.484	-0.0	-0.0	-0.0	-0.0	-0.0	-0.0	4.819637298583984	-5.409938812255859	-794.7266235351562	-0.0	-0.0	-0.0	-0.0	-0.0	-0.0	220464.984375	-3836.378662109375	1109.4056396484375
0.4845	-0.0	-0.0	-0.0	-0.0	-0.0	-0.0	5.884388446807861	-4.820868492126465	-794.2323608398438	-0.0	-0.0	-0.0	-0.0	-0.0	-0.0	220459.53125	-4068.489013671875	1330.4027099609375
0.485	-0.0	-0.0	-0.0	-0.0	-0.0	-0.0	6.808390140533447	-3.5844063758850098	-792.7196044921875	-0.0	-0.0	-0.0	-0.0	-0.0	-0.0	220384.578125	-4323.1484375	1474.77978515625
0.4855	-0.0	-0.0	-0.0	-0.0	-0.0	-0.0	7.39986515045166	-2.686358690261841	-791.1185913085938	-0.0	-0.0	-0.0	-0.0	-0.0	-0.0	220454.828125	-4663.912109375	1475.4534912109375
0.486	-0.0	-0.0	-0.0	-0.0	-0.0	-0.0	7.503588676452637	-1.3981585502624512	-791.0590209960938	-0.0	-0.0	-0.0	-0.0	-0.0	-0.0	220581.671875	-4828.193359375	1433.889404296875
0.4865	-0.0	-0.0	-0.0	-0.0	-0.0	-0.0	6.571024417877197	-0.5084267854690552	-792.8636474609375	-0.0	-0.0	-0.0	-0.0	-0.0	-0.0	221556.1875	-5402.89013671875	1107.186767578125
0.487	-0.0	-0.0	-0.0	-0.0	-0.0	-0.0	6.283143997192383	-0.036533698439598	-795.1023559570312	-0.0	-0.0	-0.0	-0.0	-0.0	-0.0	222890.46875	-5504.4921875	988.4959716796876
0.4875	-0.0	-0.0	-0.0	-0.0	-0.0	-0.0	5.729547500610352	1.2000107765197754	-797.4246215820312	-0.0	-0.0	-0.0	-0.0	-0.0	-0.0	223770.78125	-6009.85791015625	931.0707397460938
0.488	-0.0	-0.0	-0.0	-0.0	-0.0	-0.0	6.43930196762085	2.774397134780884	-800.6046142578125	-0.0	-0.0	-0.0	-0.0	-0.0	-0.0	224742.28125	-6342.6943359375	961.571044921875
0.4885	-0.0	-0.0	-0.0	-0.0	-0.0	-0.0	6.992481231689453	3.886154174804688	-803.4595947265625	-0.0	-0.0	-0.0	-0.0	-0.0	-0.0	225583.734375	-6619.2265625	979.63330078125
0.489	-0.0	-0.0	-0.0	-0.0	-0.0	-0.0	7.295009136199951	4.083431720733643	-804.23974609375	-0.0	-0.0	-0.0	-0.0	-0.0	-0.0	226128.546875	-7033.56201171875	974.60302734375
0.4895	-0.0	-0.0	-0.0	-0.0	-0.0	-0.0	7.560916900634766	5.226813316345215	-801.8760986328125	-0.0	-0.0	-0.0	-0.0	-0.0	-0.0	226183.5625	-7149.443359375	1181.093505859375
0.49	-0.0	-0.0	-0.0	-0.0	-0.0	-0.0	8.338813781738281	5.215265274047852	-799.8433227539062	-0.0	-0.0	-0.0	-0.0	-0.0	-0.0	226098.078125	-7141.322265625	1134.48876953125
0.4905	-0.0	-0.0	-0.0	-0.0	-0.0	-0.0	8.919387817382812	5.351478099822998	-797.938232421875	-0.0	-0.0	-0.0	-0.0	-0.0	-0.0	225192.015625	-7461.47705078125	1358.73876953125
0.491	-0.0	-0.0	-0.0	-0.0	-0.0	-0.0	10.181764602661133	5.861595153808594	-795.2740478515625	-0.0	-0.0	-0.0	-0.0	-0.0	-0.0	225120.09375	-7775.65087890625	1534.9554443359375
0.4915	-0.0	-0.0	-0.0	-0.0	-0.0	-0.0	10.750340461730955	7.54337215423584	-796.065673828125	-0.0	-0.0	-0.0	-0.0	-0.0	-0.0	225453.4375	-7907.76025390625	1639.9080810546875
0.492	-0.0	-0.0	-0.0	-0.0	-0.0	-0.0	11.322036743164062	7.860630035400391	-795.7813720703125	-0.0	-0.0	-0.0	-0.0	-0.0	-0.0	225726.53125	-8046.3935546875	1748.1492919921875
0.4925	-0.0	-0.0	-0.0	-0.0	-0.0	-0.0	11.75963020324707	7.821896553039551	-796.414794921875	-0.0	-0.0	-0.0	-0.0	-0.0	-0.0	225912.546875	-8104.10693359375	1794.7913818359375
0.493	-0.0	-0.0	-0.0	-0.0	-0.0	-0.0	12.081353187561035	7.134815216064453	-796.2730712890625	-0.0	-0.0	-0.0	-0.0	-0.0	-0.0	225936.0625	-8157.33544921875	1868.07958984375
0.4935	-0.0	-0.0	-0.0	-0.0	-0.0	-0.0	11.410018920898438	6.216042518615723	-797.3870849609375	-0.0	-0.0	-0.0	-0.0	-0.0	-0.0	225936.03125	-7881.3310546875	1842.4769287109373
0.494	-0.0	-0.0	-0.0	-0.0	-0.0	-0.0	10.626367568969728	5.616866111755371	-797.8114013671875	-0.0	-0.0	-0.0	-0.0	-0.0	-0.0	225850.03125	-7970.24072265625	1455.532958984375
0.4945	-0.0	-0.0	-0.0	-0.0	-0.0	-0.0	9.101372718811035	5.598186492919922	-797.6703491210938	-0.0	-0.0	-0.0	-0.0	-0.0	-0.0	226023.734375	-7636.25341796875	1152.21728515625
0.495	-0.0	-0.0	-0.0	-0.0	-0.0	-0.0	7.75220775604248	5.352016925811768	-799.8441772460938	-0.0	-0.0	-0.0	-0.0	-0.0	-0.0	226355.03125	-7337.77001953125	807.3359375
0.4955	-0.0	-0.0	-0.0	-0.0	-0.0	-0.0	6.207385063171387	5.334865570068359	-802.6995849609375	-0.0	-0.0	-0.0	-0.0	-0.0	-0.0	226793.578125	-7306.8994140625	397.1766052246094
0.496	-0.0	-0.0	-0.0	-0.0	-0.0	-0.0	4.985208511352539	5.528769493103027	-806.2628784179688	-0.0	-0.0	-0.0	-0.0	-0.0	-0.0	227671.5	-6953.62646484375	129.4259490966797
0.4965	-0.0	-0.0	-0.0	-0.0	-0.0	-0.0	4.559837818145752	5.935526847839356	-810.5209350585938	-0.0	-0.0	-0.0	-0.0	-0.0	-0.0	228548.96875	-6604.1640625	-279.9895324707031
0.497	-0.0	-0.0	-0.0	-0.0	-0.0	-0.0	3.867416858673096	6.341311454772949	-814.5706787109375	-0.0	-0.0	-0.0	-0.0	-0.0	-0.0	229466.671875	-6955.36328125	-452.48583984375
0.4975	-0.0	-0.0	-0.0	-0.0	-0.0	-0.0	3.406545162200928	6.359224796295166	-816.5260620117188	-0.0	-0.0	-0.0	-0.0	-0.0	-0.0	230048.0	-6619.8134765625	-565.498779296875
0.498	-0.0	-0.0	-0.0	-0.0	-0.0	-0.0	3.1757044792175293	6.959960460662842	-818.2001953125	-0.0	-0.0	-0.0	-0.0	-0.0	-0.0	230332.84375	-6318.10693359375	-654.4442749023438
0.4985	-0.0	-0.0	-0.0	-0.0	-0.0	-0.0	2.8207788467407227	6.942195892333984	-819.0411987304688	-0.0	-0.0	-0.0	-0.0	-0.0	-0.0	230176.0625	-6034.93115234375	-856.4876708984375
0.499	-0.0	-0.0	-0.0	-0.0	-0.0	-0.0	2.51919937133789	8.002130508422852	-818.482666015625	-0.0	-0.0	-0.0	-0.0	-0.0	-0.0	229946.03125	-5656.42333984375	-957.5408935546876
0.4995	-0.0	-0.0	-0.0	-0.0	-0.0	-0.0	1.5433396100997925	8.372442245483398	-816.3881225585938	-0.0	-0.0	-0.0	-0.0	-0.0	-0.0	229342.75	-5165.04833984375	-1106.515869140625
0.5	-0.0	-0.0	-0.0	-0.0	-0.0	-0.0	1.0813822746276855	8.921965599060059	-814.0109252929688	-0.0	-0.0	-0.0	-0.0	-0.0	-0.0	228807.71875	-4607.88916015625	-1041.337158203125
0.5005000000000001	-0.0	-0.0	-0.0	-0.0	-0.0	-0.0	1.0294065475463867	9.255393028259276	-811.704833984375	-0.0	-0.0	-0.0	-0.0	-0.0	-0.0	228062.609375	-4182.21142578125	-1165.559326171875
0.501	-0.0	-0.0	-0.0	-0.0	-0.0	-0.0	0.3548431396484375	9.38056468963623	-811.56640625	-0.0	-0.0	-0.0	-0.0	-0.0	-0.0	227883.671875	-3508.10595703125	-1408.8350830078125
0.5015000000000001	-0.0	-0.0	-0.0	-0.0	-0.0	-0.0	0.0	9.48764991760254	-813.5233154296875	-0.0	-0.0	-0.0	-0.0	-0.0	-0.0	228341.28125	-3144.398193359375	-1540.1202392578125
0.502	-0.0	-0.0	-0.0	-0.0	-0.0	-0.0	-0.744634747505188	8.86963176727295	-814.5706787109375	-0.0	-0.0	-0.0	-0.0	-0.0	-0.0	228982.34375	-3079.581787109375	-1760.1414794921875
0.5025000000000001	-0.0	-0.0	-0.0	-0.0	-0.0	-0.0	-1.5429909229278564	8.655525207519531	-819.447509765625	-0.0	-0.0	-0.0	-0.0	-0.0	-0.0	230199.921875	-2983.199951171875	-2034.0447998046875
0.503	-0.0	-0.0	-0.0	-0.0	-0.0	-0.0	-2.148104429244995	7.983631610870361	-825.3194580078125	-0.0	-0.0	-0.0	-0.0	-0.0	-0.0	231813.875	-2979.788818359375	-2386.4501953125
0.5035000000000001	-0.0	-0.0	-0.0	-0.0	-0.0	-0.0	-2.202108144760132	8.122142791748047	-828.3245239257812	-0.0	-0.0	-0.0	-0.0	-0.0	-0.0	233628.421875	-2994.5009765625	-2372.626220703125
0.504	-0.0	-0.0	-0.0	-0.0	-0.0	-0.0	-1.6700488328933716	8.355990409851074	-833.6373901367188	-0.0	-0.0	-0.0	-0.0	-0.0	-0.0	234543.390625	-2938.462890625	-2342.5244140625
0.5045000000000001	-0.0	-0.0	-0.0	-0.0	-0.0	-0.0	-1.3847150802612305	7.737802982330322	-838.5858154296875	-0.0	-0.0	-0.0	-0.0	-0.0	-0.0	235809.546875	-3341.182861328125	-2306.328857421875
0.505	-0.0	-0.0	-0.0	-0.0	-0.0	-0.0	-0.4673740267753601	6.854627132415772	-842.7753295898438	-0.0	-0.0	-0.0	-0.0	-0.0	-0.0	236679.296875	-3702.238525390625	-2277.66064453125
